<svg width="20" height="20" viewBox="0 0 20 20" fill="none" xmlns="http://www.w3.org/2000/svg">
<path d="M15.9625 10.4225C15.9734 9.67127 16.1976 8.93477 16.6142 8.28137C17.0308 7.62797 17.6264 7.07907 18.3454 6.68557C17.8886 6.10497 17.286 5.62707 16.5854 5.28997C15.8849 4.95297 15.1057 4.76587 14.3097 4.74367C12.6117 4.58507 10.9656 5.64807 10.1003 5.64807C9.21827 5.64807 7.88607 4.75947 6.45147 4.78567C5.52357 4.81237 4.61927 5.05257 3.82657 5.48277C3.03397 5.91307 2.38007 6.51877 1.92867 7.24077C-0.0269682 10.2544 1.43177 14.6834 3.30497 17.1193C4.24227 18.3121 5.33767 19.6445 6.77087 19.5973C8.17347 19.5455 8.69727 18.8012 10.3903 18.8012C12.0676 18.8012 12.559 19.5973 14.0214 19.5672C15.5264 19.5455 16.4746 18.3691 17.379 17.165C18.0524 16.3151 18.5706 15.3757 18.9143 14.3817C18.04 14.0526 17.2938 13.5016 16.7689 12.7976C16.244 12.0935 15.9635 11.2675 15.9625 10.4225Z" fill="white"/>
<path d="M13.2008 3.14156C14.0214 2.26476 14.4256 1.13781 14.3277 0C13.0741 0.1172 11.916 0.65051 11.0844 1.49365C10.6777 1.90555 10.3663 2.38476 10.1678 2.90386C9.96936 3.42296 9.88787 3.97176 9.92787 4.51886C10.5549 4.52466 11.1753 4.40366 11.7422 4.16506C12.3091 3.92656 12.8078 3.57656 13.2008 3.14156Z" fill="white"/>
</svg>
