<svg width="21" height="13" viewBox="0 0 21 13" fill="none" xmlns="http://www.w3.org/2000/svg">
<path d="M20.6727 10.876C20.6727 10.793 20.5897 10.793 20.5897 10.71C20.2576 10.0458 19.5104 9.21554 18.5141 8.30229C18.016 7.88718 17.7669 7.55508 17.6009 7.38904C17.3518 7.05694 17.3518 6.80788 17.4348 6.47579C17.5179 6.22672 17.8499 5.8116 18.4311 5.06439C18.7632 4.64928 18.9292 4.40022 19.1783 4.15115C20.4236 2.49069 21.0048 1.41138 20.8387 0.913245L20.7557 0.830229C20.6727 0.747206 20.5897 0.664186 20.4236 0.664186C20.2576 0.581163 20.0085 0.581163 19.7595 0.664186H16.6046C16.5216 0.664186 16.5216 0.664186 16.3555 0.664186C16.2725 0.664186 16.1895 0.664186 16.1895 0.664186H16.1065H16.0234L15.9404 0.747201C15.8574 0.830224 15.8574 0.830222 15.8574 0.913245C15.5253 1.8265 15.1102 2.5737 14.6951 3.40393C14.446 3.81905 14.1969 4.23417 13.9479 4.56626C13.6988 4.89835 13.5327 5.14742 13.3667 5.31346C13.2006 5.47951 13.0346 5.56253 12.9516 5.72858C12.8685 5.8116 12.7025 5.89463 12.7025 5.8116C12.6195 5.8116 12.5365 5.8116 12.5365 5.72858C12.4534 5.64555 12.3704 5.56253 12.2874 5.47951C12.2044 5.39648 12.2044 5.23044 12.1213 5.06439C12.1213 4.89834 12.1213 4.7323 12.1213 4.64928C12.1213 4.56625 12.1213 4.31719 12.1213 4.15115C12.1213 3.90208 12.1213 3.73603 12.1213 3.653C12.1213 3.40393 12.1213 3.07185 12.1213 2.73976C12.1213 2.40767 12.1213 2.15859 12.1213 1.99255C12.1213 1.8265 12.1213 1.57743 12.1213 1.41139C12.1213 1.16232 12.1213 0.996268 12.1213 0.913245C12.1213 0.830222 12.0383 0.664181 12.0383 0.581158C11.9553 0.498135 11.8723 0.41511 11.7893 0.332087C11.7062 0.249064 11.5402 0.249066 11.4572 0.166043C11.0421 0.0830204 10.5439 0 9.96276 0C8.6344 0 7.72114 0.0830255 7.38905 0.249071C7.223 0.332094 7.05696 0.415112 6.97393 0.581158C6.80789 0.747204 6.80788 0.830229 6.89091 0.830229C7.30602 0.913252 7.63812 1.07929 7.80416 1.32836L7.88719 1.49442C7.97021 1.57744 7.9702 1.74348 8.05322 1.99255C8.13624 2.24161 8.13625 2.49068 8.13625 2.82277C8.13625 3.32091 8.13625 3.81905 8.13625 4.15115C8.13625 4.56626 8.05322 4.81532 8.05322 5.06439C8.05322 5.31346 7.97021 5.47951 7.88719 5.56253C7.80417 5.72858 7.80416 5.8116 7.72113 5.8116C7.72113 5.8116 7.72113 5.89462 7.63811 5.89462C7.55508 5.89462 7.47207 5.97765 7.30602 5.97765C7.223 5.97765 7.05696 5.89463 6.97393 5.8116C6.80789 5.72858 6.64184 5.56254 6.55882 5.39649C6.39277 5.23044 6.22672 4.98137 6.06068 4.64928C5.89463 4.31718 5.64555 3.9851 5.47951 3.48696L5.31348 3.15487C5.23045 2.98883 5.06441 2.65673 4.89836 2.24162C4.73231 1.8265 4.56626 1.49442 4.40022 1.0793C4.31719 0.913255 4.23418 0.830224 4.15116 0.747201H4.06813C4.06813 0.747201 3.9851 0.664186 3.90208 0.664186C3.81905 0.664186 3.73604 0.581158 3.65302 0.581158H0.664186C0.332094 0.581158 0.166051 0.664178 0.083028 0.747201L0 0.830229C0 0.830229 0 0.91325 0 0.996273C0 1.0793 5.06608e-06 1.16231 0.083028 1.32836C0.498143 2.32463 0.996278 3.32091 1.49442 4.31719C1.99255 5.23044 2.4907 6.06067 2.82279 6.64183C3.2379 7.22299 3.56999 7.80416 3.9851 8.30229C4.40022 8.80043 4.64928 9.13252 4.7323 9.29857C4.89835 9.46461 4.98137 9.54763 5.06439 9.63065L5.31348 9.87972C5.47952 10.0458 5.72858 10.2948 6.06068 10.5439C6.39277 10.793 6.80788 11.042 7.22299 11.2911C7.63811 11.5402 8.13625 11.7062 8.63439 11.8723C9.21555 12.0383 9.71369 12.1213 10.2118 12.0383H11.4572C11.7062 12.0383 11.8723 11.9553 12.0383 11.7893L12.1213 11.7062C12.1213 11.6232 12.2044 11.6232 12.2044 11.5402C12.2044 11.4572 12.2044 11.3741 12.2044 11.2081C12.2044 10.876 12.2044 10.6269 12.2874 10.3779C12.3704 10.1288 12.3704 9.96275 12.4535 9.79671C12.5365 9.63066 12.6195 9.54763 12.7025 9.46461C12.7855 9.38159 12.8686 9.29857 12.8686 9.29857H12.9516C13.1176 9.21554 13.3667 9.29856 13.5327 9.46461C13.7818 9.63065 14.0309 9.87973 14.1969 10.1288C14.363 10.3779 14.612 10.6269 14.9441 10.959C15.2762 11.2911 15.5253 11.5402 15.6913 11.6232L15.9404 11.7893C16.1064 11.8723 16.2725 11.9553 16.5216 12.0383C16.7706 12.1213 16.9367 12.1213 17.1027 12.1213L19.9255 12.0383C20.1746 12.0383 20.4236 11.9553 20.5897 11.8723C20.7557 11.7893 20.8387 11.7062 20.8387 11.5402C20.8387 11.4572 20.8387 11.2911 20.8387 11.2081C20.6727 11.042 20.6727 10.959 20.6727 10.876Z" fill="white"/>
</svg>
