<svg width="18" height="17" viewBox="0 0 18 17" fill="black" xmlns="http://www.w3.org/2000/svg">
<path d="M2.94434 16.8809H15.0469C16.9541 16.8809 17.9473 15.8965 17.9473 14.0156V3.31934C17.9473 1.43848 16.9541 0.454102 15.0469 0.454102H2.94434C1.0459 0.454102 0.0527344 1.42969 0.0527344 3.31934V14.0156C0.0527344 15.8965 1.0459 16.8809 2.94434 16.8809ZM2.93555 15.1318C2.20605 15.1318 1.80176 14.7539 1.80176 13.9805V5.89453C1.80176 5.12109 2.20605 4.74316 2.93555 4.74316H15.0557C15.7852 4.74316 16.1895 5.12109 16.1895 5.89453V13.9805C16.1895 14.7539 15.7852 15.1318 15.0557 15.1318H2.93555ZM7.30371 7.77539H7.82227C8.13867 7.77539 8.24414 7.67871 8.24414 7.37109V6.85254C8.24414 6.53613 8.13867 6.43945 7.82227 6.43945H7.30371C6.9873 6.43945 6.88184 6.53613 6.88184 6.85254V7.37109C6.88184 7.67871 6.9873 7.77539 7.30371 7.77539ZM10.1777 7.77539H10.6963C11.0039 7.77539 11.1094 7.67871 11.1094 7.37109V6.85254C11.1094 6.53613 11.0039 6.43945 10.6963 6.43945H10.1777C9.86133 6.43945 9.75586 6.53613 9.75586 6.85254V7.37109C9.75586 7.67871 9.86133 7.77539 10.1777 7.77539ZM13.043 7.77539H13.5615C13.8779 7.77539 13.9834 7.67871 13.9834 7.37109V6.85254C13.9834 6.53613 13.8779 6.43945 13.5615 6.43945H13.043C12.7354 6.43945 12.6299 6.53613 12.6299 6.85254V7.37109C12.6299 7.67871 12.7354 7.77539 13.043 7.77539ZM4.43848 10.6055H4.94824C5.26465 10.6055 5.37012 10.5088 5.37012 10.1924V9.67383C5.37012 9.36621 5.26465 9.26953 4.94824 9.26953H4.43848C4.12207 9.26953 4.0166 9.36621 4.0166 9.67383V10.1924C4.0166 10.5088 4.12207 10.6055 4.43848 10.6055ZM7.30371 10.6055H7.82227C8.13867 10.6055 8.24414 10.5088 8.24414 10.1924V9.67383C8.24414 9.36621 8.13867 9.26953 7.82227 9.26953H7.30371C6.9873 9.26953 6.88184 9.36621 6.88184 9.67383V10.1924C6.88184 10.5088 6.9873 10.6055 7.30371 10.6055ZM10.1777 10.6055H10.6963C11.0039 10.6055 11.1094 10.5088 11.1094 10.1924V9.67383C11.1094 9.36621 11.0039 9.26953 10.6963 9.26953H10.1777C9.86133 9.26953 9.75586 9.36621 9.75586 9.67383V10.1924C9.75586 10.5088 9.86133 10.6055 10.1777 10.6055ZM13.043 10.6055H13.5615C13.8779 10.6055 13.9834 10.5088 13.9834 10.1924V9.67383C13.9834 9.36621 13.8779 9.26953 13.5615 9.26953H13.043C12.7354 9.26953 12.6299 9.36621 12.6299 9.67383V10.1924C12.6299 10.5088 12.7354 10.6055 13.043 10.6055ZM4.43848 13.4268H4.94824C5.26465 13.4268 5.37012 13.3301 5.37012 13.0225V12.5039C5.37012 12.1875 5.26465 12.0908 4.94824 12.0908H4.43848C4.12207 12.0908 4.0166 12.1875 4.0166 12.5039V13.0225C4.0166 13.3301 4.12207 13.4268 4.43848 13.4268ZM7.30371 13.4268H7.82227C8.13867 13.4268 8.24414 13.3301 8.24414 13.0225V12.5039C8.24414 12.1875 8.13867 12.0908 7.82227 12.0908H7.30371C6.9873 12.0908 6.88184 12.1875 6.88184 12.5039V13.0225C6.88184 13.3301 6.9873 13.4268 7.30371 13.4268ZM10.1777 13.4268H10.6963C11.0039 13.4268 11.1094 13.3301 11.1094 13.0225V12.5039C11.1094 12.1875 11.0039 12.0908 10.6963 12.0908H10.1777C9.86133 12.0908 9.75586 12.1875 9.75586 12.5039V13.0225C9.75586 13.3301 9.86133 13.4268 10.1777 13.4268Z" fill="#943aa3"/>
</svg>
