<svg width="26" height="21" viewBox="0 0 26 21" fill="#943aa3" xmlns="http://www.w3.org/2000/svg">
<path d="M7.14648 14.9258H8.35059C8.72852 14.9258 9.00098 14.6973 9.08887 14.3369L9.44043 12.9131C9.66895 12.8252 9.89746 12.7373 10.0996 12.6318L11.3477 13.4053C11.6641 13.5986 12.0332 13.5635 12.2969 13.2998L13.1406 12.4561C13.3955 12.1836 13.4395 11.8057 13.2373 11.4893L12.4727 10.25C12.5781 10.0391 12.6748 9.82812 12.7363 9.61719L14.1689 9.26562C14.5381 9.17773 14.7666 8.90527 14.7666 8.51855V7.34082C14.7666 6.96289 14.5381 6.69043 14.1689 6.59375L12.7539 6.25098C12.6748 6.00488 12.5781 5.78516 12.4902 5.60059L13.2373 4.33496C13.4395 4.00098 13.4307 3.6582 13.1582 3.38574L12.2969 2.55078C12.0332 2.2959 11.6729 2.23438 11.3652 2.42773L10.0996 3.21875C9.90625 3.11328 9.67773 3.0166 9.44043 2.94629L9.08887 1.49609C9.00098 1.12695 8.72852 0.898438 8.35059 0.898438H7.14648C6.75977 0.898438 6.49609 1.12695 6.39941 1.49609L6.05664 2.92871C5.81934 3.00781 5.59082 3.0957 5.38867 3.20117L4.12305 2.42773C3.81543 2.23438 3.46387 2.2959 3.2002 2.55078L2.33887 3.38574C2.06641 3.6582 2.05762 4.00098 2.25098 4.33496L2.99805 5.60059C2.91895 5.78516 2.82227 6.00488 2.73438 6.25098L1.31934 6.59375C0.950195 6.69043 0.730469 6.96289 0.730469 7.34082V8.51855C0.730469 8.90527 0.950195 9.17773 1.31934 9.26562L2.76074 9.61719C2.82227 9.82812 2.91895 10.0391 3.02441 10.25L2.25098 11.4893C2.05762 11.8057 2.09277 12.1836 2.35645 12.4561L3.2002 13.2998C3.46387 13.5635 3.83301 13.5986 4.14941 13.4053L5.39746 12.6318C5.59961 12.7373 5.81934 12.8252 6.05664 12.9131L6.39941 14.3369C6.49609 14.6973 6.75977 14.9258 7.14648 14.9258ZM7.74414 10.0479C6.5752 10.0479 5.6084 9.08105 5.6084 7.90332C5.6084 6.74316 6.5752 5.77637 7.74414 5.77637C8.91309 5.77637 9.87988 6.74316 9.87988 7.90332C9.87988 9.08105 8.91309 10.0479 7.74414 10.0479ZM18.7305 20.4189H19.7324C20.084 20.4189 20.3301 20.2168 20.4004 19.9004L20.6904 18.6699C20.8926 18.5908 21.0771 18.5293 21.2617 18.4238L22.334 19.1006C22.6064 19.2676 22.9229 19.2412 23.1602 19.0127L23.8633 18.292C24.1006 18.0547 24.1357 17.7295 23.96 17.457L23.3008 16.3848C23.3887 16.209 23.4678 16.0244 23.5205 15.8398L24.7686 15.5498C25.085 15.4707 25.2695 15.2334 25.2695 14.8906V13.8975C25.2695 13.5547 25.085 13.3086 24.7686 13.2383L23.5293 12.9395C23.4678 12.7285 23.3975 12.5439 23.3096 12.3857L23.96 11.2959C24.1445 11.0059 24.127 10.707 23.8809 10.4697L23.1602 9.7666C22.9229 9.54688 22.6152 9.48535 22.3428 9.66113L21.2617 10.3379C21.0859 10.25 20.8926 10.1621 20.6904 10.1006L20.4004 8.84375C20.3301 8.53613 20.084 8.3252 19.7324 8.3252H18.7305C18.3877 8.3252 18.1504 8.53613 18.0713 8.84375L17.7725 10.083C17.5791 10.1621 17.377 10.2324 17.2012 10.3291L16.1201 9.65234C15.8564 9.49414 15.54 9.5293 15.3027 9.7666L14.5908 10.4697C14.3447 10.707 14.3359 11.0059 14.5117 11.2959L15.1533 12.3857C15.083 12.5439 15.0039 12.7285 14.9336 12.9395L13.7119 13.2383C13.3867 13.3086 13.1934 13.5547 13.1934 13.8975V14.8906C13.1934 15.2246 13.3867 15.4707 13.7119 15.5498L14.9512 15.8398C15.0127 16.0244 15.083 16.209 15.1709 16.3848L14.5117 17.457C14.3271 17.7207 14.3711 18.0547 14.5996 18.292L15.3027 19.0127C15.54 19.2412 15.8652 19.2676 16.1377 19.1006L17.21 18.4238C17.3857 18.5293 17.5791 18.5908 17.7725 18.6699L18.0713 19.9004C18.1504 20.2168 18.3877 20.4189 18.7305 20.4189ZM19.2402 16.0684C18.2998 16.0684 17.5439 15.3037 17.5439 14.3633C17.5439 13.4404 18.3086 12.6758 19.2402 12.6758C20.1719 12.6758 20.9277 13.4404 20.9277 14.3633C20.9277 15.3037 20.1719 16.0684 19.2402 16.0684Z" fill="#943aa3"/>
</svg>
