<svg width="26" height="18" viewBox="0 0 26 18" fill="#943aa3" xmlns="http://www.w3.org/2000/svg">
<path d="M17.925 8.54485C19.9873 8.54485 21.7294 6.71798 21.7294 4.35435C21.7294 2.04722 19.9779 0.276855 17.925 0.276855C15.8816 0.276855 14.1206 2.07547 14.13 4.37319C14.13 6.71798 15.8627 8.54485 17.925 8.54485ZM7.03914 8.76144C8.83776 8.76144 10.3539 7.16058 10.3539 5.1077C10.3539 3.09249 8.81893 1.55755 7.03914 1.55755C5.25936 1.55755 3.72441 3.12075 3.73383 5.12653C3.73383 7.16058 5.24994 8.76144 7.03914 8.76144ZM1.85046 17.3119H8.91309C7.90549 15.8712 8.98843 13.0273 11.1166 11.3511C10.0808 10.6825 8.73417 10.1928 7.03914 10.1928C2.82981 10.1928 0.108337 13.2909 0.108337 15.8429C0.108337 16.7752 0.57918 17.3119 1.85046 17.3119ZM12.0583 17.3025H23.7917C25.3455 17.3025 25.8823 16.8317 25.8823 15.9653C25.8823 13.5452 22.803 10.2116 17.925 10.2116C13.0377 10.2116 9.96778 13.5452 9.96778 15.9653C9.96778 16.8317 10.5045 17.3025 12.0583 17.3025Z" fill="#943aa3"/>
</svg>
