<svg width="22" height="20" viewBox="0 0 22 20" fill="#943aa3" xmlns="http://www.w3.org/2000/svg">
<path d="M20.328 6.60001H17.4L16.776 2.87201C16.6503 2.30796 16.3742 1.78849 15.9769 1.36874C15.5797 0.948995 15.0763 0.644648 14.52 0.488012C13.9611 0.308213 13.379 0.211184 12.792 0.200012H9.20801C8.62104 0.211184 8.03887 0.308213 7.48001 0.488012C6.92375 0.644648 6.42029 0.948995 6.02308 1.36874C5.62587 1.78849 5.34974 2.30796 5.22401 2.87201L4.60001 6.60001H1.67201C1.54599 6.59925 1.42158 6.62826 1.3089 6.6847C1.19622 6.74113 1.09847 6.82339 1.02361 6.92476C0.948749 7.02614 0.898896 7.14376 0.878112 7.26806C0.857328 7.39235 0.866202 7.5198 0.90401 7.64001L3.91201 17.72C4.06515 18.207 4.36956 18.6324 4.78102 18.9345C5.19248 19.2366 5.68955 19.3997 6.20001 19.4H15.8C16.3077 19.3963 16.8012 19.2317 17.2095 18.9298C17.6177 18.6279 17.9197 18.2044 18.072 17.72L21.08 7.64001C21.1174 7.52108 21.1265 7.39506 21.1066 7.27199C21.0866 7.14891 21.0382 7.03221 20.9652 6.93118C20.8921 6.83015 20.7965 6.74759 20.6858 6.69009C20.5752 6.63259 20.4527 6.60175 20.328 6.60001ZM6.23201 6.60001L6.80801 3.12801C6.87115 2.84453 7.01763 2.58641 7.22862 2.38683C7.43961 2.18724 7.70546 2.05532 7.99201 2.00801C8.38561 1.88321 8.79521 1.81441 9.20801 1.80001H12.792C13.2096 1.81281 13.624 1.88161 14.024 2.00801C14.3106 2.05532 14.5764 2.18724 14.7874 2.38683C14.9984 2.58641 15.1449 2.84453 15.208 3.12801L15.768 6.60001H6.16801H6.23201Z" fill="#943aa3"/>
</svg>
